<svg width="24" height="24" viewBox="0 0 24 24" xmlns="http://www.w3.org/2000/svg">
<path d="M6.34313 6.34314C5.89681 6.78947 5.89683 7.51308 6.34313 7.95939L10.3837 12L6.34313 16.0406C5.89683 16.4869 5.89681 17.2105 6.34313 17.6569C6.78946 18.1032 7.51307 18.1032 7.95938 17.6569L12 13.6162L16.0406 17.6569C16.4869 18.1032 17.2105 18.1032 17.6568 17.6569C18.1032 17.2105 18.1032 16.4869 17.6568 16.0406L13.6162 12L17.6568 7.95939C18.1032 7.51306 18.1032 6.78947 17.6568 6.34314C17.2105 5.89682 16.4869 5.89682 16.0406 6.34314L12 10.3838L7.95938 6.34314C7.51307 5.89683 6.78946 5.89682 6.34313 6.34314Z"/>
</svg>
