<svg fill="none" xmlns="http://www.w3.org/2000/svg" viewBox="0 0 24 24">
  <path d="M21.001 3.749H6.006a1.5 1.5 0 000 2.999h14.995a1.5 1.5 0 100-3zM3.007 5.248a1.5 1.5 0 00-2.999 0 1.277 1.277 0 000 .292c.017.098.045.194.083.285a1.74 1.74 0 00.33.488c.068.068.143.128.225.18.079.057.164.105.255.142.099.052.205.09.314.113.098.01.196.01.293 0a1.5 1.5 0 001.057-.435 1.74 1.74 0 00.33-.487c.048-.091.085-.187.112-.286a1.278 1.278 0 000-.292zM3.007 11.996a1.282 1.282 0 000-.293 1.216 1.216 0 00-.112-.277 1.497 1.497 0 00-.143-.262 1.08 1.08 0 00-.187-.225 1.5 1.5 0 00-2.557 1.057c.003.197.041.393.113.577.037.089.083.174.135.255.057.081.122.157.195.225.066.072.142.135.225.187a1.273 1.273 0 00.54.225c.095.022.194.032.292.03.097.011.195.011.292 0a1.22 1.22 0 00.278-.082 1.25 1.25 0 00.262-.143c.083-.052.159-.115.225-.187.072-.066.135-.142.187-.225.058-.079.106-.165.143-.255.051-.1.089-.205.112-.315a1.24 1.24 0 000-.292zM3.007 18.743a1.287 1.287 0 000-.292 1.277 1.277 0 00-.112-.285 1.739 1.739 0 00-.142-.255 1.094 1.094 0 00-.188-.225 1.5 1.5 0 00-2.114 0 1.094 1.094 0 00-.188.225c-.054.081-.102.166-.142.255a1.23 1.23 0 00-.082.285 1.5 1.5 0 00.412 1.35c.066.072.142.135.225.187a1.273 1.273 0 00.54.225c.096.021.194.032.292.03.097.011.195.011.292 0a1.22 1.22 0 00.278-.083c.093-.036.18-.084.262-.142.083-.052.159-.115.225-.188.072-.066.135-.141.188-.224.057-.08.105-.165.142-.255.051-.1.089-.206.112-.315a1.24 1.24 0 000-.293zM22.5 10.496H6.006a1.5 1.5 0 000 3H22.5a1.5 1.5 0 000-3zM15.753 17.244H6.006a1.5 1.5 0 100 2.999h9.747a1.5 1.5 0 100-3z" fill="#C4C4C4"/>
</svg>
