<svg width="32" height="40" viewBox="0 0 32 40" fill="none" xmlns="http://www.w3.org/2000/svg">
<g>
<path d="M0 2.33335C0 0.860607 1.19392 -0.333313 2.66667 -0.333313H29.3333C30.8061 -0.333313 32 0.860607 32 2.33335V37.3507C32 39.4806 29.6264 40.7509 27.8541 39.5693L17.4792 32.6528C16.5835 32.0558 15.4165 32.0558 14.5208 32.6528L4.14587 39.5693C2.37371 40.7509 0 39.4806 0 37.3507V2.33335Z" fill="#010101" fill-opacity="0.6"/>
<path d="M16 8C15.3688 8 14.8571 8.51168 14.8571 9.14286V14.8571H9.14286C8.51168 14.8571 8 15.3688 8 16C8 16.6312 8.51168 17.1429 9.14286 17.1429H14.8571V22.8571C14.8571 23.4883 15.3688 24 16 24C16.6312 24 17.1429 23.4883 17.1429 22.8571V17.1429H22.8571C23.4883 17.1429 24 16.6312 24 16C24 15.3688 23.4883 14.8571 22.8571 14.8571H17.1429V9.14286C17.1429 8.51168 16.6312 8 16 8Z" fill="white"/>
</g>
</svg>
