<svg width="32" height="42" viewBox="0 0 32 42" fill="none" xmlns="http://www.w3.org/2000/svg">
<path d="M0 3.33335C0 1.86061 1.19392 0.666687 2.66667 0.666687H29.3333C30.8061 0.666687 32 1.86061 32 3.33335V38.3507C32 40.4806 29.6264 41.7509 27.8541 40.5693L17.4792 33.6528C16.5835 33.0558 15.4165 33.0558 14.5208 33.6528L4.14587 40.5693C2.37371 41.7509 0 40.4806 0 38.3507V3.33335Z" fill="#F5C518"/>
<path d="M13.1941 21.1941L9.69414 17.6941C9.6029 17.601 9.49399 17.527 9.37379 17.4765C9.25359 17.426 9.12452 17.4 8.99414 17.4C8.86376 17.4 8.7347 17.426 8.6145 17.4765C8.4943 17.527 8.38539 17.601 8.29414 17.6941C8.20102 17.7854 8.12703 17.8943 8.07652 18.0145C8.02602 18.1347 8 18.2638 8 18.3941C8 18.5245 8.02602 18.6536 8.07652 18.7738C8.12703 18.894 8.20102 19.0029 8.29414 19.0941L12.4841 23.2841C12.6715 23.4704 12.925 23.5749 13.1891 23.5749C13.4533 23.5749 13.7068 23.4704 13.8941 23.2841L24.4941 12.6941C24.5873 12.6029 24.6613 12.494 24.7118 12.3738C24.7623 12.2536 24.7883 12.1245 24.7883 11.9941C24.7883 11.8638 24.7623 11.7347 24.7118 11.6145C24.6613 11.4943 24.5873 11.3854 24.4941 11.2941C24.4029 11.201 24.294 11.127 24.1738 11.0765C24.0536 11.026 23.9245 11 23.7941 11C23.6638 11 23.5347 11.026 23.4145 11.0765C23.2943 11.127 23.1854 11.201 23.0941 11.2941L13.1941 21.1941Z" fill="#111111"/>
</svg>
