<svg width="52" height="32" viewBox="0 0 52 32" fill="none" xmlns="http://www.w3.org/2000/svg">
<g clip-path="url(#clip0)">
<path d="M51.2 32.3276H0V1.50098H25.6H51.2V32.3276Z" fill="#515E64"/>
<path d="M0 8.37341H2.8228V4.0357H25.6H48.3772V8.37341H51.2V0.586792H0V8.37341Z" fill="#2F2B39"/>
<path d="M46.1522 24.4917H5.04704C3.26134 20.0509 3.26134 15.6937 5.04704 11.2528H46.1522C47.9379 15.6947 47.9379 20.0509 46.1522 24.4917Z" fill="#C4C4C4"/>
<path d="M8.50355 24.4905C6.88975 22.7557 5.90125 20.4256 5.90125 17.8738C5.90125 15.3118 6.88975 12.9919 8.50355 11.2571H30.307V24.4905" fill="#2F2B39"/>
<path d="M43.8244 11.2528H42.2403L41.8068 14.1556C41.0518 12.8885 39.9227 11.8716 38.5712 11.2582H27.7854V24.4916H38.5711C40.7519 23.5019 42.354 21.455 42.7382 19.0114C42.7931 18.6624 43.8244 11.2528 43.8244 11.2528Z" fill="#2F2B39"/>
<path d="M35.5499 22.6582C38.193 22.6582 40.3355 20.5156 40.3355 17.8726C40.3355 15.2295 38.1929 13.087 35.5499 13.087" fill="#C4C4C4"/>
<path d="M15.65 13.0869C13.0069 13.0869 10.8644 15.2295 10.8644 17.8725C10.8644 20.5155 13.007 22.6581 15.65 22.6581" fill="#C4C4C4"/>
<path d="M35.5509 11.2529H15.6508V24.4918H35.5509V11.2529Z" fill="#515E64"/>
<path d="M17.7203 20.9713V14.7739C17.7203 14.1969 18.188 13.7292 18.7649 13.7292H32.435C33.0119 13.7292 33.4796 14.1969 33.4796 14.7739V20.9713C33.4796 21.5482 33.0119 22.0159 32.435 22.0159H18.7649C18.188 22.0159 17.7203 21.5483 17.7203 20.9713Z" fill="#F5C518"/>
</g>
<defs>
<clipPath id="clip0">
<rect width="51.2" height="32" fill="white"/>
</clipPath>
</defs>
</svg>
